<?xml version="1.0" encoding="utf-8"?>
<!-- Generator: Adobe Illustrator 24.0.0, SVG Export Plug-In . SVG Version: 6.00 Build 0)  -->
<svg version="1.1" id="Layer_1" xmlns="http://www.w3.org/2000/svg" xmlns:xlink="http://www.w3.org/1999/xlink" x="0px" y="0px"
	 width="747.5px" height="613.6px" viewBox="0 0 747.5 613.6" enable-background="new 0 0 747.5 613.6" xml:space="preserve">
<linearGradient id="SVGID_1_" gradientUnits="userSpaceOnUse" x1="-580.4216" y1="845.6843" x2="-579.4216" y2="845.6843" gradientTransform="matrix(127.773 0 0 -127.771 74722.4688 108117.8047)">
	<stop  offset="0" style="stop-color:#F94F4F"/>
	<stop  offset="1" style="stop-color:#F66363"/>
</linearGradient>
<path fill="url(#SVGID_1_)" d="M677.5,50.1c-1.3-5-3.3-9.7-5.9-14.1l6-9l-8.3-8.3l-8.3-8.3l-9,6c-4.4-2.6-9.2-4.6-14.1-5.9L635.8,0
	h-23.4l-2.1,10.5c-5,1.3-9.7,3.3-14.1,5.9l-9-6l-8.3,8.3l-8.3,8.3l6,9c-2.6,4.4-4.6,9.2-5.9,14.1l-10.5,2.1v23.4l10.5,2.1
	c1.3,5,3.3,9.7,5.9,14.1l-6,9l8.3,8.3l8.3,8.3l9-6c4.4,2.6,9.2,4.6,14.1,5.9l2.1,10.5h23.4l2.1-10.5c5-1.3,9.7-3.3,14.1-5.9l9,6
	l8.3-8.3l8.3-8.3l-6-9c2.6-4.4,4.6-9.2,5.9-14.1l10.5-2.1V52.2L677.5,50.1z M624.1,104.9c-22.6,0-41-18.3-41-41s18.3-41,41-41
	s41,18.3,41,41C665.1,86.5,646.8,104.9,624.1,104.9z"/>
<linearGradient id="SVGID_2_" gradientUnits="userSpaceOnUse" x1="-575.0125" y1="843.5391" x2="-574.0125" y2="843.5391" gradientTransform="matrix(58.5729 0 0 -58.573 34319.8555 49564.4844)">
	<stop  offset="0" style="stop-color:#F94F4F"/>
	<stop  offset="1" style="stop-color:#F66363"/>
</linearGradient>
<path fill="url(#SVGID_2_)" d="M693.4,149.5c-0.6-2.3-1.5-4.5-2.7-6.5l2.7-4.1l-3.8-3.8l-3.8-3.8l-4.1,2.7c-2-1.2-4.2-2.1-6.5-2.7
	l-1-4.8h-10.7l-1,4.8c-2.3,0.6-4.5,1.5-6.5,2.7l-4.1-2.7l-3.8,3.8l-3.8,3.8l2.7,4.1c-1.2,2-2.1,4.2-2.7,6.5l-4.8,1v10.7l4.8,1
	c0.6,2.3,1.5,4.5,2.7,6.5l-2.7,4.1l3.8,3.8l3.8,3.8l4.1-2.7c2,1.2,4.2,2.1,6.5,2.7l1,4.8h10.7l1-4.8c2.3-0.6,4.4-1.5,6.5-2.7
	l4.1,2.7l3.8-3.8l3.8-3.8l-2.7-4.1c1.2-2,2.1-4.2,2.7-6.5l4.8-1v-10.7L693.4,149.5z M669,174.7c-10.4,0-18.8-8.4-18.8-18.8
	s8.4-18.8,18.8-18.8c10.4,0,18.8,8.4,18.8,18.8C687.8,166.2,679.4,174.7,669,174.7C669,174.7,669,174.7,669,174.7L669,174.7z"/>
<path fill="#AEBECC" d="M411.1,522.2h-57.5V347.4h57.5V522.2z"/>
<path fill="#ECECEC" d="M615.5,431.6H149.2c-8.4,0-15.3-6.8-15.3-15.3v-320c0-8.4,6.8-15.3,15.3-15.3h466.4
	c8.4,0,15.3,6.8,15.3,15.3v320C630.8,424.8,623.9,431.6,615.5,431.6z"/>
<path fill="#FFFFFF" d="M611.3,376.7H153.4V43.8h457.9V376.7z"/>
<linearGradient id="SVGID_3_" gradientUnits="userSpaceOnUse" x1="-586.2775" y1="853.2701" x2="-585.2775" y2="853.2701" gradientTransform="matrix(-457.939 0 0 40.207 -267868 -34243.5469)">
	<stop  offset="0" style="stop-color:#F94F4F"/>
	<stop  offset="1" style="stop-color:#F66363"/>
</linearGradient>
<path fill="url(#SVGID_3_)" d="M611.3,84H153.4V43.8h457.9V84z"/>
<path fill="#757575" d="M366.3,401.8c0,8.9,7.2,16,16,16c8.9,0,16-7.2,16-16c0-8.9-7.2-16-16-16c0,0,0,0,0,0
	C373.5,385.8,366.3,393,366.3,401.8z"/>
<g>
	<path fill="#DFE1E8" d="M446.8,124.5H292.8c-1.9,0-3.5-1.6-3.5-3.5v-4.9c0-1.9,1.6-3.5,3.5-3.5h153.9c1.9,0,3.5,1.6,3.5,3.5v4.9
		C450.3,122.9,448.7,124.5,446.8,124.5z"/>
	<path fill="#DFE1E8" d="M446.8,146H292.8c-1.9,0-3.5-1.6-3.5-3.5v-4.9c0-1.9,1.6-3.5,3.5-3.5h153.9c1.9,0,3.5,1.6,3.5,3.5v4.9
		C450.3,144.4,448.7,146,446.8,146z"/>
	<path fill="#DFE1E8" d="M446.8,167.5H292.8c-1.9,0-3.5-1.6-3.5-3.5l0,0v-4.9c0-1.9,1.6-3.5,3.5-3.5h153.9c1.9,0,3.5,1.6,3.5,3.5
		v4.9C450.3,165.9,448.7,167.5,446.8,167.5z"/>
	<path fill="#DFE1E8" d="M372.2,353.2H200.5c-14.3,0-25.9-11.6-26-26V222.9c0-14.3,11.6-25.9,26-26h171.7c14.3,0,25.9,11.6,26,26
		v104.4C398.1,341.6,386.5,353.2,372.2,353.2z M200.5,200.2c-12.5,0-22.7,10.2-22.7,22.7v104.4c0,12.5,10.2,22.7,22.7,22.7h171.7
		c12.5,0,22.7-10.2,22.7-22.7V222.9c0-12.5-10.2-22.7-22.7-22.7L200.5,200.2z"/>
	<path fill="#DFE1E8" d="M363.2,236.3H209.6c-3.8,0-6.9-3.1-6.9-6.9v-11.3c0-3.8,3.1-6.9,6.9-6.9h153.6c3.8,0,6.9,3.1,6.9,6.9
		c0,0,0,0,0,0v11.3C370.1,233.2,367,236.3,363.2,236.3z"/>
</g>
<path fill="#ECECEC" d="M252.9,515.6h258.9v13.2H252.9V515.6z"/>
<path fill="#EEF0F7" d="M559.8,231.2c0,16.1-10.3,30.3-25.5,35.4c-0.2,0.1-0.4,0.1-0.7,0.2c-19.7,6.1-40.5-4.9-46.7-24.5
	c-6.1-19.7,4.9-40.5,24.5-46.7c19.7-6.1,40.5,4.9,46.7,24.5C559.2,223.7,559.8,227.5,559.8,231.2L559.8,231.2z"/>
<path fill="#3C4145" d="M513.7,227.3c0,0-2.5-16.5,11.1-16.2s13.5,8.4,13.2,16.5s-5.5,7.5,0.4,18.7c5.9,11.2-5.1,11.2-5.1,11.2
	l-8.5-11.7L513.7,227.3z"/>
<path fill="#EEA886" d="M523.3,212.7c0,0-9.2,1.5-9.6,14.6c-0.4,13.1,2.5,15.9,10.6,13.2c8.1-2.7,10.6-16.5,10.8-18.6
	S535.7,211.1,523.3,212.7z"/>
<path fill="#E55353" d="M539.5,258.3c0,3.9-2.1,6.6-5.2,8.2c-0.2,0.1-0.4,0.1-0.7,0.2c-9.2,2.8-19,2-27.6-2.2
	c-1.1-2.2,0.5-5.4,3.8-10.3c2.3-3.4,4.5-6.8,8.3-8.4c5.6-0.9,11.6-0.9,15.8,1.4C537.2,249.2,539.4,252.6,539.5,258.3z"/>
<path fill="#E55353" d="M511.6,254.1l-4.2,6.7c0,0,0.3-1,0.8-4c0.1-0.6,0.2-1.2,0.3-1.9c0-0.2,0.1-0.4,0.1-0.6
	c1.8-4.2,7.5-7.3,7.7-7.4L511.6,254.1z"/>
<path fill="#EEA886" d="M541.4,263.4c-2.2,1.3-4.6,2.4-7.1,3.2c-0.2,0.1-0.4,0.1-0.7,0.2c-0.9-2.4-1.8-4.5-1.9-5.1
	c-0.1-0.2-0.2-0.5-0.3-0.9c-0.8-1.9-2.5-6-2.5-9.2c0-2.1,0.7-3.8,2.8-4.3c0.7-0.2,1.5-0.2,2.2-0.1c2.3,0.4,3.7,2.5,4.5,4.4
	c0,0,0,0.1,0,0.1c0.4,1,0.7,2,0.8,3c0,0,0,0.1,0.1,0.4c0.1,0.5,0.4,1.5,0.7,2.8C540.4,259.4,540.9,261.3,541.4,263.4L541.4,263.4z"
	/>
<path fill="#EEA886" d="M529.4,234.6c-0.8,1.5-1.6,10.9-1.6,10.9s-11.3,4.3-10.1,1.9c0.5-1.2,0.7-2.5,0.7-3.7c0-0.8,0-1.5-0.1-2.3
	c0-0.2-0.1-0.4-0.1-0.4S530.2,233,529.4,234.6L529.4,234.6z"/>
<path fill="#3C4145" d="M519.5,222.1c0,0,4.7,7.7,9.1,10.8s2.1,5.5,2.1,5.5s11.3-23.7,0.6-25.3s-17.3-1.8-17.6,14.3
	C513.7,227.3,518.5,222,519.5,222.1L519.5,222.1z"/>
<path fill="#A77860" d="M524.6,240.3c-1.7,2.6-6.3,3.2-6.3,3.2c0-0.8,0-1.5-0.1-2.3C521.1,241.9,524.6,240.3,524.6,240.3z"/>
<path fill="#BD4444" d="M508.6,254.3c-0.3,0.8-0.4,1.7-0.4,2.6l1.7-2.5c0,0,3-4.3,4-5.4c0.8-0.8,1.6-1.5,2.5-2.1
	C516.3,246.9,510.4,249.7,508.6,254.3L508.6,254.3z"/>
<path fill="#E55353" d="M531.1,260.6c0,0,7.2-2.8,9.4-3c0,0-1.5-11.6-8.6-10.4S531.1,260.6,531.1,260.6L531.1,260.6z"/>
<path fill="#EEA886" d="M518.1,245.9c0,0-5.3,8.2-3.5,8.9c1.8,0.7,11.6-1,15.7-8.7C530.3,246,524.1,242.8,518.1,245.9L518.1,245.9z"
	/>
<path fill="#EEF0F7" d="M573.6,122.5c0,26.8-21.7,48.5-48.5,48.5c-26.8,0-48.5-21.7-48.5-48.5c0-26.8,21.7-48.5,48.5-48.5
	C551.9,74,573.6,95.7,573.6,122.5C573.6,122.5,573.6,122.5,573.6,122.5z"/>
<path fill="#D9C7C1" d="M556.7,149.3l-3.6,12.8c-6.5,4.6-14.1,7.6-22,8.5c-1.4,0.2-2.9,0.3-4.4,0.3c-0.5,0-1.1,0-1.6,0
	c-1.6,0-3.1-0.1-4.7-0.2c-9-0.9-17.7-4.3-24.9-9.8c-0.7-4.2-1.4-8.9-2.1-13.3c3.6-1.3,14.9-5.2,22.1-7.6c0.1,0,0.2-0.1,0.3-0.1
	c0.2-0.1,0.3-0.1,0.5-0.2l1.2-0.4c0.4-0.1,0.8-0.3,1.1-0.4c1.5-0.5,2.5-0.8,2.9-1l0.1-0.1h0.1l9.6,0.7l1.6,0.1l0.5,0l0.2,0.1
	c0.6,0.1,2.3,0.6,4.5,1.3h0C543.9,141.9,553.2,145.2,556.7,149.3L556.7,149.3z"/>
<path fill="#EEA987" d="M527.6,98.4c0,0,11.5,1.9,9.6,20s-12.1,16.5-12.8,16.5c-0.7,0-10.2,0.2-10.8-21.9
	C513.6,113,513.5,96.7,527.6,98.4z"/>
<path fill="#EEA987" d="M532.7,129.7c0,0-0.4,7.4,0.3,9.1c0.7,1.6-9.3,6.7-15.5,0.9c0,0,1.3-8.1,0.9-11
	C518,125.8,532.7,129.7,532.7,129.7z"/>
<path fill="#EEA987" d="M537.4,113.3c0,0,1.3-1.3,1.7,0c0.4,1.4-2,7.5-1.9,7.7c0,0-0.2,0.5-0.5,0.2
	C536.4,121.1,537.4,113.3,537.4,113.3L537.4,113.3z"/>
<path fill="#EEA987" d="M513.8,112.9c0,0-1.2-1.4-1.7,0c-0.5,1.4,1.3,7.4,1.6,7.8c0,0,0.4,0.6,0.7,0.3
	C514.6,120.7,513.8,112.9,513.8,112.9z"/>
<path fill="#E8734D" d="M538.2,111.8c-0.4,2.5-0.8,4.3-0.8,4.3l-1.7,2.2c0.1-1.9,0-3.7-0.2-5.6c-0.1-0.3-0.2-0.8-0.3-1.4
	c-0.2-0.9-0.4-1.9-0.5-2.3c-0.2-0.6-9.9-3.4-18.5,0.6c0,0,0.1,0.7,0.1,1.6c0,1-0.1,2.1-0.6,2.2c-0.8,0.3-0.5,5.7-0.5,5.7l-1.3-1.6
	c0,0-0.4-2.8-0.8-6l0,0c-0.1-0.8-0.2-1.5-0.3-2.3c-0.2-3.2,0.1-9.1,4.4-12.6c2.9-1.2,7.4-2.3,15,0.1c0.8,0,1.5,0.2,2.2,0.6
	C539.2,102.5,538.2,111.8,538.2,111.8z"/>
<path fill="#C78D71" d="M519.2,132.5c0,0,1.8,2.6,6.1,2.5c4.3-0.1,6.1-2.3,6.1-2.3s-2,4.2-6.2,4.2
	C521.1,136.8,519.2,132.5,519.2,132.5z"/>
<path fill="#EEA987" d="M516.3,139.8c0,0,3.1,5.4,9,5.9c3.7,0.3,6.9-4.4,8.5-6.7C528.1,136.9,521.8,137.2,516.3,139.8z"/>
<path fill="#EDDAD3" d="M532.7,137.3c-2.1,2.5-4.6,4.7-7.4,6.4l3.1,4.8l5.3-9.5L532.7,137.3z"/>
<path fill="#EDDAD3" d="M517.8,138c2.1,2.4,4.6,4.4,7.6,5.7l-3.4,5l-6-8.7L517.8,138z"/>
<path fill="#5073AB" d="M525.3,143.7l2.7,4.1c-1.7,0.9-3.8,0.9-5.4-0.1L525.3,143.7z"/>
<path fill="#323657" d="M559.8,148.5c-0.5,1.7-1.2,4.1-3,10.7c-0.6,0.5-1.1,1-1.7,1.4c-0.7,0.5-1.3,1-2,1.5
	c-6.5,4.6-14.1,7.6-22,8.5c0.7-16.8,2.7-31.7,2.7-31.7c1.6,0.4,3.1,0.8,4.5,1.2h0c12.3,3.5,18.5,6.6,20.7,7.8c0,0,0,0,0,0
	C559.5,148.3,559.8,148.5,559.8,148.5z"/>
<path fill="#323657" d="M515.4,170c-9.4-1.9-18-6.6-24.7-13.4c-0.3-0.3-0.6-0.6-0.9-0.9c-0.9-3.6-1.4-6-1.5-6.1v0
	c0,0,6-3.9,27.2-9.6v0C515.6,140.5,515.6,154.1,515.4,170z"/>
<path fill="#5073AB" d="M526.8,148.2c-0.2,4.4-0.2,13-0.1,22.8c-0.5,0-1.1,0-1.6,0c-1.6,0-3.1-0.1-4.7-0.2
	c0.5-7.6,1.6-15.2,3.2-22.6c0.2-1,0.4-1.5,0.4-1.5l2.8,0.5C526.9,147.5,526.9,147.8,526.8,148.2z"/>
<path fill="#323657" d="M562.2,153.7c-1.7,2-3.5,3.8-5.4,5.5c-0.6,0.5-1.1,1-1.7,1.4l4.7-12.1C560.9,149.5,561.8,152.8,562.2,153.7
	L562.2,153.7z"/>
<path fill="#323657" d="M490.7,156.7c-0.3-0.3-0.6-0.6-0.9-0.9c-1.1-1.1-2.1-2.3-3.1-3.6c0.3-1,0.9-1.8,1.6-2.5v0L490.7,156.7z"/>
<path fill="#F5F7FF" d="M175.8,56.3h58.7c1.8,0,3.3,1.5,3.3,3.3v8.6c0,1.8-1.5,3.3-3.3,3.3h-58.7c-1.8,0-3.3-1.5-3.3-3.3v-8.6
	C172.5,57.8,174,56.3,175.8,56.3z"/>
<circle fill="#EEF0F7" cx="522.6" cy="320" r="37.3"/>
<path fill="#949494" d="M522.6,334.9c-1,0-1.9-0.8-1.9-1.9v-26c0-1,0.8-1.9,1.9-1.9s1.9,0.8,1.9,1.9v26
	C524.4,334,523.6,334.9,522.6,334.9C522.6,334.9,522.6,334.9,522.6,334.9L522.6,334.9z"/>
<path fill="#949494" d="M535.5,321.9h-26c-1,0-1.9-0.8-1.9-1.9c0-1,0.8-1.9,1.9-1.9h26c1,0,1.9,0.8,1.9,1.9
	C537.4,321.1,536.6,321.9,535.5,321.9z"/>
<linearGradient id="SVGID_4_" gradientUnits="userSpaceOnUse" x1="-567.7599" y1="841.3614" x2="-567.7599" y2="840.3614" gradientTransform="matrix(34.946 0 0 -34.947 20273.7422 29601.5898)">
	<stop  offset="0" style="stop-color:#F94F4F"/>
	<stop  offset="1" style="stop-color:#F66363"/>
</linearGradient>
<path fill="url(#SVGID_4_)" d="M419.7,198.5h26.1c2.4,0,4.4,2,4.4,4.4l0,0v26.1c0,2.4-2,4.4-4.4,4.4h-26.1c-2.4,0-4.4-2-4.4-4.4
	v-26.1C415.3,200.5,417.3,198.5,419.7,198.5z"/>
<path fill="#F3F3F3" d="M431.7,223.7l-8.8-7.7c-0.7-0.6-0.8-1.7-0.2-2.5c0.6-0.7,1.7-0.8,2.5-0.2l0,0l6.2,5.4l8.9-9.9
	c0.6-0.7,1.7-0.8,2.5-0.2c0.7,0.6,0.8,1.7,0.2,2.5c0,0,0,0.1-0.1,0.1L431.7,223.7z"/>
<linearGradient id="SVGID_5_" gradientUnits="userSpaceOnUse" x1="-567.7604" y1="841.3614" x2="-567.7604" y2="840.3614" gradientTransform="matrix(34.947 0 0 -34.947 20274.3262 29646.377)">
	<stop  offset="0" style="stop-color:#F94F4F"/>
	<stop  offset="1" style="stop-color:#F66363"/>
</linearGradient>
<path fill="url(#SVGID_5_)" d="M419.7,243.3h26.1c2.4,0,4.4,2,4.4,4.4v26.1c0,2.4-2,4.4-4.4,4.4l0,0h-26.1c-2.4,0-4.4-2-4.4-4.4
	v-26.1C415.3,245.3,417.3,243.3,419.7,243.3z"/>
<path fill="#F3F3F3" d="M431.7,268.5l-8.8-7.7c-0.7-0.6-0.8-1.7-0.2-2.5c0.6-0.7,1.7-0.8,2.5-0.2l0,0l6.2,5.4l8.9-9.9
	c0.6-0.7,1.7-0.8,2.5-0.2c0.7,0.6,0.8,1.7,0.2,2.5c0,0,0,0.1-0.1,0.1L431.7,268.5z"/>
<linearGradient id="SVGID_6_" gradientUnits="userSpaceOnUse" x1="-567.7599" y1="841.3614" x2="-567.7599" y2="840.3614" gradientTransform="matrix(34.946 0 0 -34.947 20273.7422 29691.1602)">
	<stop  offset="0" style="stop-color:#F94F4F"/>
	<stop  offset="1" style="stop-color:#F66363"/>
</linearGradient>
<path fill="url(#SVGID_6_)" d="M419.7,288.1h26.1c2.4,0,4.4,2,4.4,4.4l0,0v26.1c0,2.4-2,4.4-4.4,4.4l0,0h-26.1c-2.4,0-4.4-2-4.4-4.4
	c0,0,0,0,0,0v-26.1C415.3,290.1,417.3,288.1,419.7,288.1z"/>
<path fill="#131C24" d="M274.7,539.6c-0.9,2-2,3.9-3.3,5.6c-1.5,1.6-7.2,4.4-7.3,9.1c0,5.1,9.7,3.7,13.5,3.5s4.1-2.9,5.7-5.8
	c1.6-2.9,3.2-2.4,3.5-4.7c0.3-2.3-1.2-7.5-1.2-7.5L274.7,539.6z"/>
<path fill="#4F4946" d="M274.6,538.1l-0.3,2.4c0,0,6,2,11.6,0.2l-0.3-3.3L274.6,538.1z"/>
<path fill="#131C24" d="M344.7,539.6c0.9,2,2,3.9,3.3,5.6c1.5,1.6,7.2,4.4,7.3,9.1c0,5.1-9.7,3.7-13.5,3.5s-4.1-2.9-5.7-5.8
	s-3.2-2.4-3.5-4.7s1.2-7.5,1.2-7.5L344.7,539.6z"/>
<path fill="#4F4946" d="M344.9,538.1l0.3,2.4c0,0-6,2-11.6,0.2l0.3-3.3L344.9,538.1z"/>
<path fill="#293E4F" d="M341.7,473.7c0,6.3,5.9,63.7,5.9,63.7c-0.7,2.1-15.1,1.8-17.3,0.8s-8.8-57.9-9.2-64.3
	c-0.4-6.3-9.8-61.5-11.8-61.3c-2,0.2-11.3,59.3-12.9,64.1c-1.6,4.8-8.7,62-8.7,62c-4.9,2.7-16.7-0.7-16.7-0.7s2.5-58.7,2.7-60.4
	c0.4-2.6,0-9.7,1.1-25.4c1-14,4.7-44.6,7.1-61.1c0.1-0.6,0.2-1.2,0.2-1.7c0.5-3.2,0.8-5.6,1-6.7c0.1-0.5,0.1-0.8,0.1-0.8
	c0.6-0.3,1.3-0.5,2-0.8c16.5-5.5,47.8-5.2,47.8-5.2s0.4,5.6,0.5,5.9c0,0.3,0.1,0.9,0.2,1.5c0.2,1.5,0.5,3.6,0.8,6.2c0,0,0,0,0,0.1
	l0,0.2c1.1,9,2.7,22.1,2.5,23.5C336.8,415.5,341.7,467.4,341.7,473.7L341.7,473.7z"/>
<path fill="#D9C7C1" d="M344.1,287.8l-8.1,29c-0.3,0.9-0.6,2.1-1,3.4l0,0.1c0,0,0,0,0,0c-1.9,7.1-3.1,14.4-3.5,21.8
	c-0.3,6,0.8,30,0.8,30s-12.2,4.6-30.5,3.4c0,0-19.7-0.5-18.1-12.5c4.2-32,0.1-45.1-0.5-48.4c0,0-2.3-14.7-4.2-27.7
	c5.5-2.1,28.9-10.8,28.9-10.8L320,277C320,277,338.7,281.6,344.1,287.8L344.1,287.8z"/>
<path fill="#EEA987" d="M313.9,235c0,0,12,2,9.9,20.8s-12.6,17.1-13.3,17.1c-0.7,0-10.6,0.2-11.2-22.7
	C299.4,250.2,299.3,233.2,313.9,235L313.9,235z"/>
<path fill="#EEA987" d="M319.2,267.4c0,0-0.4,7.7,0.3,9.4c0.7,1.7-9.6,7-16,0.9c0,0,1.3-8.4,0.9-11.4S319.2,267.4,319.2,267.4z"/>
<path fill="#EEA987" d="M324.1,250.5c0,0,1.3-1.4,1.8,0c0.5,1.4-2.1,7.7-2,8c0,0-0.2,0.5-0.6,0.2S324.1,250.5,324.1,250.5z"/>
<path fill="#EEA987" d="M299.6,250c0,0-1.3-1.4-1.8,0s1.4,7.7,1.6,8.1c0,0,0.4,0.6,0.7,0.4S299.6,250,299.6,250z"/>
<path fill="#E8734D" d="M324.9,248.9c-0.4,2.6-0.8,4.5-0.8,4.5l-1.7,2.3c0.1-1.9,0-3.9-0.2-5.8c-0.1-0.3-0.2-0.8-0.3-1.4
	c-0.2-0.9-0.4-2-0.5-2.4c-0.2-0.6-10.3-3.5-19.2,0.6c0,0,0.1,0.8,0.1,1.6c0,1-0.1,2.1-0.6,2.3c-0.9,0.3-0.5,5.9-0.5,5.9l-1.4-1.6
	c0,0-0.4-2.9-0.8-6.3v0c-0.1-0.8-0.2-1.6-0.3-2.4c-0.2-3.4,0.1-9.5,4.5-13.1c3-1.3,11-2.5,15.6,0.1c1,0.6,2,1.3,2.9,2
	C326.5,240.6,324.9,248.9,324.9,248.9z"/>
<path fill="#C78D71" d="M305.2,270.4c0,0,1.9,2.7,6.4,2.6s6.4-2.4,6.4-2.4s-2.1,4.4-6.4,4.3S305.2,270.4,305.2,270.4L305.2,270.4z"
	/>
<path fill="#EEA987" d="M302.2,277.9c0,0,3.2,5.6,9.3,6.1c3.9,0.3,7.2-4.6,8.7-7C314.4,274.9,307.9,275.2,302.2,277.9z"/>
<path fill="#EDDAD3" d="M319.2,275.3c-2.2,2.6-4.8,4.8-7.7,6.6l3.2,5l5.5-9.9L319.2,275.3z"/>
<path fill="#EDDAD3" d="M303.7,276.1c2.1,2.5,4.8,4.5,7.8,5.9l-3.6,5.1l-6.2-8.8L303.7,276.1z"/>
<path fill="#5073AB" d="M311.5,282l2.8,4.2c-1.8,0.9-3.9,0.9-5.6-0.1L311.5,282z"/>
<path fill="#1A2833" d="M282.9,377.7c0,0,15,5.5,49,0.3l-0.5-6.2c0,0-19.7,5.8-47.9,0.8L282.9,377.7z"/>
<path fill="#385369" d="M320.3,277c0,0-3.5,26.3-3,48.9c0.5,22.6,7.8,65.1,7.8,65.1s13.1-1.3,16.4-5.4c0,0-7.5-40.8-7.3-46.9
	s9.6-51.6,9.6-51.6S340.1,282.3,320.3,277L320.3,277z"/>
<path fill="#385369" d="M301.5,278.4c0,0,0,24.9-0.5,47.5s-3.5,64.8-3.5,64.8s-15.4-2.2-18.6-6.3c0,0,5.4-39.6,5.2-45.7
	c-0.2-6.1-6.9-51.1-6.9-51.1S279.5,284.3,301.5,278.4L301.5,278.4z"/>
<path fill="#3E5E78" d="M303.4,373.8h9.2v6.9h-9.2V373.8z"/>
<path fill="#5073AB" d="M310.2,285.1c0,0-4.1,14.1-4.5,42s0.5,36,0.5,36l3.2,6.4l4.3-6.6c0,0-1.4-64.3-0.6-77.2L310.2,285.1z"/>
<path fill="#EEA886" d="M327.4,324.4c0,0,6.1-3.1,6.9-3.6s11-2,12.3-2s1.3,1.1,1,1.4c-0.4,0.4-10.5,2-10.7,2.3
	c-0.2,0.2,0.9,0.2,0.9,0.2s11-0.2,11.7,0.6c0.8,0.7-0.1,1.4-0.6,1.6c0,0,1,1.1-0.2,1.6c-0.9,0.3-1.8,0.6-2.7,0.8
	c0,0,1.5,0.7,0.5,1.4s-12.6,4.3-12.6,4.3S329.7,324.7,327.4,324.4L327.4,324.4z"/>
<path fill="#385369" d="M348.4,345.5c-7.9,1.9-26.3-1.2-33.2-2.7c-1.5-0.3-3.2-0.7-4.9-1c-2.9-0.6-5.8-1.1-8.3-1.5
	c-3-0.5-5.1-0.9-5.1-0.9s38.5-8.6,39.9-8.6s-3.6-22.5-3.6-22.5s-5-18.8-2.4-26.2c0,0,9.8,3,12.9,5.2c1.8,1.3,3.1,9.4,4.3,15
	c1.5,7,5.1,23.1,5.5,26.5C353.9,331.7,356.3,343.6,348.4,345.5L348.4,345.5z"/>
<path fill="#385369" d="M289.5,282c0,0-11.8,4-12.4,5.6c-2.4,6.5-3.5,13.6-4.3,16.4c-0.9,3.5-3.1,13.9-3.6,17.3
	c-0.7,4.3-2,19.6-1.5,22c0.7,3,7.8,2.8,11.6,2.2c3.8-0.6,56.4-13.4,56.4-13.4s-3-9.8-3.2-10.7c0,0-40.6,4.6-45.7,5.7
	c-1.2,0.2-2.4,0.5-3.6,0.9C283.3,328,292.2,291.3,289.5,282L289.5,282z"/>
<path fill="#EEA886" d="M296.5,325.9c0,0-5.3-4.3-6-5s-10.3-4.4-11.6-4.6c-0.6-0.2-1.2,0.1-1.4,0.6c-0.1,0.2-0.1,0.4,0,0.6
	c0.2,0.9,10,4.2,10.1,4.4s-0.9,0-0.9,0s-10.7-2.5-11.6-2c-0.9,0.6-0.2,1.4,0.2,1.7c0,0-1.2,0.9-0.2,1.6c0.8,0.5,1.6,1,2.5,1.3
	c0,0-1.6,0.4-0.8,1.3c0.8,0.9,6.4,2.1,6.4,2.1S294.3,325.6,296.5,325.9z"/>
<path fill="#263947" d="M328.1,333.9l-17.8,7.8c-2.9-0.6-5.8-1.1-8.3-1.5L328.1,333.9z"/>
<path fill="#E8734D" d="M319.5,234.9c0,0,3-1.5,4.6,0.5s1.8,12.6-0.2,16.7S324.2,237.6,319.5,234.9z"/>
<path fill="#706865" d="M201.2,340.7h5.3v241.5h-5.3V340.7z"/>
<path fill="#BDAFAA" d="M64.7,239.8h155.6c5.3,0,9.6,4.3,9.6,9.6v283.2c0,5.3-4.3,9.6-9.6,9.6H64.7c-5.3,0-9.6-4.3-9.6-9.6V249.4
	C55.1,244.1,59.4,239.8,64.7,239.8z"/>
<path fill="#FFFFFF" d="M69.4,244.7h146.2c5.3,0,9.5,4.3,9.5,9.5v266.8c0,5.3-4.3,9.5-9.5,9.5H69.4c-5.3,0-9.5-4.3-9.5-9.5V254.2
	C59.9,248.9,64.1,244.7,69.4,244.7z"/>
<path fill="#706865" d="M116.4,237.5h52.1v11.8h-52.1V237.5z"/>
<path fill="#FFE5E5" d="M193.3,519H87.5c-8.6,0-15.5-7-15.5-15.5v-60.2c0-8.6,7-15.5,15.5-15.5h105.7c8.6,0,15.5,7,15.5,15.5v60.2
	C208.8,512.1,201.9,519,193.3,519z M87.5,429.8c-7.5,0-13.5,6.1-13.5,13.5v60.2c0,7.5,6.1,13.5,13.5,13.5h105.7
	c7.5,0,13.5-6.1,13.5-13.5v-60.2c0-7.5-6.1-13.5-13.5-13.5L87.5,429.8z"/>
<path fill="#323657" d="M98.4,373.4C98.4,373.4,98.4,373.4,98.4,373.4C98.5,373.5,98.5,373.5,98.4,373.4z"/>
<path fill="#FFE5E5" d="M190.2,366.9c-9.5,0-17.2-7.7-17.2-17.2c0-9.5,7.7-17.2,17.2-17.2c9.5,0,17.2,7.7,17.2,17.2l0,0
	C207.5,359.2,199.7,366.9,190.2,366.9z M190.2,334.5c-8.4,0-15.2,6.8-15.2,15.2c0,8.4,6.8,15.2,15.2,15.2s15.2-6.8,15.2-15.2
	c0,0,0,0,0,0C205.5,341.3,198.6,334.5,190.2,334.5z"/>
<path fill="#FFE5E5" d="M190.2,406.6c-9.5,0-17.2-7.7-17.2-17.2c0-9.5,7.7-17.2,17.2-17.2c9.5,0,17.2,7.7,17.2,17.2c0,0,0,0,0,0
	C207.5,398.9,199.7,406.6,190.2,406.6z M190.2,374.2c-8.4,0-15.2,6.8-15.2,15.2c0,8.4,6.8,15.2,15.2,15.2c8.4,0,15.2-6.8,15.2-15.2
	C205.5,381,198.6,374.2,190.2,374.2z"/>
<path fill="#FFE5E5" d="M112.6,350.5c-1.4,0-2.9-0.1-4.3-0.2c-10.4-1-20.1-5.6-27.4-13c-0.3-0.3-0.6-0.6-0.8-0.8
	c-1-1-1.9-2.2-2.8-3.3c-6.1-7.8-9.3-17.4-9.3-27.3c0-24.6,20-44.6,44.6-44.6v2c-23.5,0-42.6,19.1-42.6,42.6c0,9.4,3.1,18.6,8.9,26.1
	c0.8,1.1,1.8,2.2,2.7,3.2c0.2,0.3,0.5,0.5,0.8,0.8c7,7.1,16.3,11.5,26.2,12.4c1.4,0.1,2.7,0.2,4.1,0.2c0.5,0,1,0,1.4,0
	c1.3,0,2.6-0.1,3.8-0.3c7-0.9,13.6-3.4,19.4-7.5c0.6-0.4,1.2-0.9,1.8-1.3c0.5-0.4,1-0.8,1.5-1.2c1.7-1.5,3.3-3.1,4.8-4.8
	c6.5-7.7,10-17.4,10-27.4c0-2.1-0.2-4.2-0.5-6.3l2-0.3c0.3,2.2,0.5,4.4,0.5,6.5c0,10.5-3.7,20.7-10.5,28.7c-1.5,1.8-3.2,3.5-5,5.1
	c-0.5,0.5-1.1,0.9-1.6,1.3c-0.6,0.5-1.2,0.9-1.8,1.4c-6,4.3-13,7-20.3,7.9c-1.3,0.2-2.7,0.3-4,0.3
	C113.6,350.4,113.1,350.5,112.6,350.5L112.6,350.5z"/>
<path fill="#FFE5E5" d="M143.7,329.5c-0.1-0.2-0.3-0.3-0.4-0.5c-0.1-0.1-0.1-0.1-0.2-0.2c0,0,0,0,0,0c-8.3-4.6-23.3-8.4-23.3-8.4
	c-0.4-1-0.4-4.5-0.3-6.6c1.6-1.8,3-4.6,3.8-9c0.3,0.2,0.4-0.2,0.4-0.2c-0.1-0.2,2.1-5.7,1.7-7c0-0.4-0.4-0.6-0.7-0.6
	c-0.1,0-0.2,0.1-0.3,0.1c0.1-0.3,0.1-0.6,0.2-1c0.1-0.5,0.9-8.4-3.4-13.1c-0.6-0.3-1.3-0.5-2-0.5c-6.8-2.1-10.9-1.2-13.5-0.1
	c-3.8,3.1-4.1,8.4-3.9,11.3c0.1,0.7,0.2,1.4,0.2,2.1v0c0,0.3,0.1,0.5,0.1,0.8c-0.3-0.2-0.7-0.2-0.9,0c-0.1,0.1-0.1,0.2-0.2,0.3
	c-0.5,1.2,1.2,6.7,1.4,7c0,0,0.4,0.6,0.6,0.3c0.8,4.8,2.2,7.8,3.7,9.6c-0.2,2.7-0.6,6.1-0.8,7c-3.5,1.1-21,5.8-26.3,9.2
	c-0.7,0.6-1.2,1.4-1.5,2.3c0.9,1.1,1.8,2.2,2.8,3.2c0.3,0.3,0.5,0.6,0.8,0.8c7.2,7.2,16.6,11.7,26.8,12.7c1.4,0.1,2.8,0.2,4.2,0.2
	c0.5,0,1,0,1.4,0c1.3,0,2.6-0.1,3.9-0.3c7.2-0.9,14-3.5,19.8-7.7c0.6-0.4,1.2-0.9,1.8-1.3c0.5-0.4,1-0.8,1.5-1.3
	c1.8-1.5,3.4-3.2,4.9-4.9C145.4,332.3,144.6,330.8,143.7,329.5L143.7,329.5z"/>
<path fill="#E2D2CA" d="M663.5,429.9h-51.7v-3.1h51.7V429.9z"/>
<path fill="#706865" d="M652.1,437.9h4.5v139.6h-4.5V437.9z"/>
<path fill="#CCBDB7" d="M619.9,430.3H584v-4.4h35.9V430.3z"/>
<path fill="#4667A8" d="M608.8,429.9h-13.6v-41.3h13.6V429.9z"/>
<path fill="#B59074" d="M682.1,437.9H483v-7.9h199.1V437.9z"/>
<path fill="#323657" d="M720.3,381.9c0,0,2.2,30.5-3.8,34.2c-3.7,2.3-18.6,10-18.2,11.5s8.4,12.9,8.4,12.9s28.6-18.9,29.6-24.8
	c0.9-5.8-1.4-44.7-5.3-46.5c-2.9-1.3-4.5-0.2-8.2,2.5C717.5,375.5,720.3,381.9,720.3,381.9L720.3,381.9z"/>
<path fill="#EAD8CF" d="M668.1,390.6l-2.5-0.9c0,0,3.1-7.4,4.5-7.2c1.2,0.2,2.4,0.4,3.6,0.7L668.1,390.6z"/>
<path fill="#DA9B5B" d="M667.6,391.9c0.3-0.2,5.4-9.9,5.4-9.9l10.8,1.5l-5.8,11.5L667.6,391.9z"/>
<path fill="#424773" d="M685.1,558.4c0,0,0.9,6.2,1,7.1c0.1,0.9,9.9-0.5,9.9-0.5l0.8-7.4C696.8,557.6,686.3,557.5,685.1,558.4z"/>
<path fill="#292C47" d="M686,564.7c-1.7,2.1-3.8,3.9-6.1,5.3c-3,1.6-7.7,2.3-9.5,3.9c-1.3,1.2-4.7,6.4,7.8,6.3
	c12.5-0.1,18.5,0.7,19.8-1.3c1.3-2-1.9-14.8-1.9-14.8S693.1,565.4,686,564.7L686,564.7z"/>
<path fill="#424773" d="M622.3,558.5c0,0,0.9,6.2,1,7.1c0.1,0.9,9.9-0.5,9.9-0.5l0.8-7.4C634,557.7,623.6,557.6,622.3,558.5
	L622.3,558.5z"/>
<path fill="#292C47" d="M623.2,564.8c-1.7,2.1-3.8,3.9-6.1,5.3c-3,1.6-14,3-15.8,4.6c-1.3,1.2-3.4,6.1,14.1,5.6
	c12.5-0.3,18.5,0.7,19.8-1.3c1.3-2-1.9-14.8-1.9-14.8S630.5,565.5,623.2,564.8z"/>
<path fill="#292C47" d="M716.7,451.6c0,0-35.6,6-43.6,7.3s-51.6,12.1-57.1,15.4c-4.3,2.6,2.3,65.8,3.8,90h17.2l1.2-72.3
	c20.6,0.5,35.3-4.8,50.3-2.5s27.5,5.5,37.1-7.3C725.6,482.1,725.9,454.4,716.7,451.6z"/>
<path fill="#292C47" d="M681.6,564.4l16.7-1L700,492c8.9,0.2,11.9-0.3,19.1-1.2l13.5-31.4c-11.8,2.4-49.8,11.9-54.8,15
	C673.4,477,680,540.2,681.6,564.4L681.6,564.4z"/>
<path fill="#EEA886" d="M700.3,318.2c0,0-13.1-3.6-18,6.5s-2.7,29.3,3.9,31.1s16-0.3,18.8-6.6c2.7-6.3,4.9-15.3,4.3-21.1
	S703.8,319.6,700.3,318.2z"/>
<path fill="#EEA886" d="M689.5,353.8c0,0,0.1,7.7-0.7,9.3c-0.9,1.6,18.2,1.2,18.2,1.2s-3-9.3-1.3-17.1
	C707.4,339.5,689.5,353.8,689.5,353.8z"/>
<path fill="#3A3F47" d="M706.7,344.4c0,0-1,2.1-5.9,1.7c-4.9-0.3-11.4-6.3-13.5-6.8s-2.2-1.7-2.2-1.7l-1.1,2l-2.1,0.3
	c0,0,1.5-6-1.7-8.1c-3.2-2.1,1.4-19,17.5-14.9c0,0,12.3,2.2,12.4,9.1C710.2,332.8,709.1,340.7,706.7,344.4L706.7,344.4z"/>
<path fill="#E2D2CA" d="M687.8,363c0,0,0.1-3.1,1.5-3.4c1.4-0.3,15-2.2,16.7-1.5l0.7,4.1C706.7,362.2,703.4,364.3,687.8,363
	L687.8,363z"/>
<path fill="#EEA886" d="M683.9,336.2c0.4-2.6,3.3-5.5,5-1.5c1.7,4-1.1,9.8-3,9.5C684,343.9,683.4,339.6,683.9,336.2z"/>
<path fill="#323657" d="M631.1,400.1C631.1,400.1,631.2,400.1,631.1,400.1C631.1,400.1,631,400.1,631.1,400.1z"/>
<path fill="#3A3F47" d="M704.1,320c0,0,15.9-0.7,2.8,24.1L704.1,320z"/>
<path fill="#918783" d="M739.6,572.8l-1.2,3.3l-50-15.5l2.4-6.7L739.6,572.8z"/>
<path fill="#918783" d="M692.3,558.3h-5.7v-54.4h5.7V558.3z"/>
<path fill="#5E5854" d="M706.2,504.2h-33.5V501h33.5V504.2z"/>
<path fill="#918783" d="M639,572.8l1.2,3.3l50-15.5l-2.2-7.2L639,572.8z"/>
<path fill="#918783" d="M674.2,575.8v3.9l16-19l-2.2-7.2L674.2,575.8z"/>
<path fill="#BFB2AC" d="M634.3,577.5c0,2.6,2.1,4.7,4.7,4.7c2.6,0,4.7-2.1,4.7-4.7c0-2.6-2.1-4.7-4.7-4.7c0,0,0,0,0,0
	C636.4,572.8,634.3,574.9,634.3,577.5z"/>
<path fill="#BFB2AC" d="M673.8,577.5c0,2.6,2.1,4.7,4.7,4.7c2.6,0,4.7-2.1,4.7-4.7s-2.1-4.7-4.7-4.7
	C675.9,572.8,673.8,574.9,673.8,577.5L673.8,577.5z"/>
<path fill="#BFB2AC" d="M734.9,577.5c0,2.6,2.1,4.7,4.7,4.7s4.7-2.1,4.7-4.7c0-2.6-2.1-4.7-4.7-4.7c0,0,0,0,0,0
	C737,572.8,734.9,574.9,734.9,577.5z"/>
<path fill="#E2D2CA" d="M725.4,501h-72.2c-2,0-3.6-1.6-3.6-3.6v-4.9c0-2,1.6-3.6,3.6-3.6h72.2c2,0,3.6,1.6,3.6,3.6v4.9
	C729,499.4,727.4,501,725.4,501C725.4,501,725.4,501,725.4,501z"/>
<path fill="#706865" d="M513,577.5h-4.5V437.9h4.5V577.5z"/>
<path fill="#5F8BE3" d="M657.1,408.4H546.8c-2,0-3.6-1.6-3.6-3.6c0,0,0,0,0,0v-75.7c0-2,1.6-3.6,3.6-3.6c0,0,0,0,0,0h110.3
	c2,0,3.6,1.6,3.6,3.6v75.7C660.7,406.8,659.1,408.4,657.1,408.4C657.1,408.4,657.1,408.4,657.1,408.4z"/>
<path fill="#F5F7FF" d="M656.1,395.5H547.8V330h108.3V395.5z"/>
<path fill="#CECFD6" d="M656.1,335.2H547.8V330h108.3V335.2z"/>
<path fill="#CECFD6" d="M562.6,391.4H554c-1.2,0-2.2-1-2.2-2.2v-47.8c0-1.2,1-2.2,2.2-2.2h8.6c1.2,0,2.2,1,2.2,2.2v47.8
	C564.9,390.4,563.9,391.4,562.6,391.4z"/>
<path fill="#CECFD6" d="M651.9,344h-21.4c-0.7,0-1.2-0.5-1.2-1.2v-2.4c0-0.7,0.5-1.2,1.2-1.2h21.4c0.7,0,1.2,0.5,1.2,1.2v2.4
	C653.1,343.5,652.5,344,651.9,344C651.9,344,651.9,344,651.9,344z"/>
<path fill="#CECFD6" d="M650.6,392.8h-18.8c-1.4,0-2.5-1.1-2.5-2.5v-40.5c0-1.4,1.1-2.5,2.5-2.5l0,0h18.8c1.4,0,2.5,1.1,2.5,2.5
	c0,0,0,0,0,0v40.5C653.1,391.6,651.9,392.8,650.6,392.8C650.6,392.8,650.6,392.8,650.6,392.8z"/>
<path fill="#FFFFFF" d="M598.2,401.7c0,2.1,1.7,3.8,3.8,3.8c2.1,0,3.8-1.7,3.8-3.8c0-2.1-1.7-3.8-3.8-3.8
	C599.9,397.9,598.2,399.6,598.2,401.7z"/>
<path fill="#314875" d="M577.6,430v-1.5c0,0,2.1-9.2,16.7-9.2c14.7,0,14.4,10.7,14.4,10.7H577.6z"/>
<path fill="#EEA886" d="M608.9,420.7c0,0-3.2-0.2-4.4-1s-8.2-5.4-9.8-4.7c-1.6,0.7-12.6,4.1-12.2,5.7c0.4,1.6,1.4,1.4,2.2,1.2
	c0.8-0.3,8.7-1.9,9.4-1.7c0,0-7.8,2.8-7.8,4.9s1.6,2.6,2.4,3.4c0.7,0.8,1.6,2.7,3.6,2.9c2,0.1,11.8-3.3,13.8-3.4s5.7,0.1,6-0.2
	C612.4,427.5,608.9,420.7,608.9,420.7z"/>
<path fill="#323657" d="M667,367.3c10.2-1.8,20.9-4.3,20.9-4.3l18.9-0.8c0,0,17.4,3.8,24.2,6.9c0.6,0.3,0.7,15.5,2.4,19.5l-5.7,12
	c0,0-3.3,23.7-4,34.2c-0.3,4.8,0.9,46.8,0.9,46.8s-1.7,0.8-14.6,2.3s-45.2-0.5-45.4-2s6.2-56.8,6.5-59.7c0.4-4.4-1.3-24.7-1.3-24.7
	c-2.4,3.3-8.6,18-15.1,25.1c-3.8,4.1-22.6,6.7-26.2,6.8c-7.7,0.3-21.8,1.8-22.2,1c-0.3-0.5-1.2-12.5-0.3-12.8
	c0.8-0.3,27-1.8,33.7-5.3c2.5-1.3,9.8-17.3,9.8-17.3S661.3,369.8,667,367.3L667,367.3z"/>
<path fill="#E2D2CA" d="M740.6,480.4h-40.9c-3.8,0-6.9-3.1-6.9-6.9l0,0v-62c0-3.8,3.1-6.9,6.9-6.9l0,0h40.9c3.8,0,6.9,3.1,6.9,6.9
	c0,0,0,0,0,0v62C747.5,477.3,744.4,480.4,740.6,480.4z"/>
<path fill="#E2D2CA" d="M702.5,498c8.1,0,14.6-2.7,19.5-8.1c11-12.1,9-33.3,8.9-34.2c-0.2-1.7-1.7-2.9-3.4-2.7
	c-1.6,0.2-2.8,1.6-2.7,3.3c0,0.2,1.8,19.5-7.4,29.6c-3.7,4.1-8.6,6-14.9,6c-1.7,0-3,1.4-3,3.1C699.4,496.6,700.8,498,702.5,498
	L702.5,498z"/>
<path fill="#EEF0F7" d="M603.5,356.8c0,8.4-6.9,15.3-15.3,15.3c-8.4,0-15.3-6.9-15.3-15.3c0-8.4,6.9-15.3,15.3-15.3l0,0
	C596.7,341.5,603.5,348.3,603.5,356.8z"/>
<path fill="#D9C7C1" d="M598.2,365.2l-1.1,4c-2.1,1.5-4.5,2.4-7,2.7c-0.5,0.1-0.9,0.1-1.4,0.1c-0.2,0-0.3,0-0.5,0
	c-0.5,0-1,0-1.5-0.1c-0.5-0.1-1.1-0.1-1.6-0.2c-2.3-0.5-4.4-1.4-6.3-2.9c-0.2-1.3-0.4-2.8-0.7-4.2c1.1-0.4,4.7-1.6,7-2.4
	c0,0,0.1,0,0.1,0c0.1,0,0.1,0,0.1-0.1c0.1,0,0.3-0.1,0.4-0.1l0.4-0.1c0.5-0.2,0.8-0.3,0.9-0.3l0,0h0l3,0.2l0.5,0l0.2,0l0.1,0
	c0.2,0,0.7,0.2,1.4,0.4C594.2,362.9,597.1,363.9,598.2,365.2L598.2,365.2z"/>
<path fill="#EEA987" d="M589,349.2c0,0,3.6,0.6,3,6.3c-0.6,5.7-3.8,5.2-4,5.2c-0.2,0-3.2,0.1-3.4-6.9
	C584.6,353.8,584.6,348.6,589,349.2L589,349.2z"/>
<path fill="#EEA987" d="M590.6,359c-0.1,1,0,1.9,0.1,2.9c0.2,0.5-2.9,2.1-4.9,0.3c0.2-1.1,0.3-2.3,0.3-3.5
	C586,357.8,590.6,359,590.6,359L590.6,359z"/>
<path fill="#EEA987" d="M592.1,353.9c0,0,0.4-0.4,0.5,0c0.1,0.4-0.6,2.4-0.6,2.4c0,0-0.1,0.2-0.2,0.1
	C591.9,355.6,592,354.7,592.1,353.9z"/>
<path fill="#EEA987" d="M584.7,353.7c0,0-0.4-0.4-0.5,0c0,0.8,0.2,1.7,0.5,2.5c0,0,0.1,0.2,0.2,0.1
	C584.8,355.4,584.8,354.6,584.7,353.7z"/>
<path fill="#E8734D" d="M592.4,353.4c-0.1,0.8-0.2,1.4-0.2,1.4l-0.5,0.7c0-0.6,0-1.2,0-1.8c0-0.1-0.1-0.3-0.1-0.4
	c-0.1-0.3-0.1-0.6-0.2-0.7c-1.9-0.7-4-0.6-5.8,0.2c0,0,0,0.2,0,0.5c0,0.3,0,0.6-0.2,0.7c-0.3,0.1-0.2,1.8-0.2,1.8l-0.4-0.5
	c0,0-0.1-0.9-0.2-1.9v0c0-0.2-0.1-0.5-0.1-0.7c-0.2-1.5,0.3-2.9,1.4-4c1.5-0.6,3.2-0.6,4.7,0c0.2,0,0.5,0.1,0.7,0.2
	C592.7,350.4,592.4,353.4,592.4,353.4z"/>
<path fill="#C78D71" d="M586.4,359.9c0.5,0.5,1.2,0.8,1.9,0.8c0.7,0,1.4-0.2,1.9-0.7c-0.4,0.8-1.1,1.3-1.9,1.3
	C587.5,361.2,586.7,360.7,586.4,359.9L586.4,359.9z"/>
<path fill="#EEA987" d="M585.5,362.2c0.6,1,1.7,1.7,2.8,1.9c1.2,0.1,2.2-1.4,2.7-2.1C589.2,361.3,587.2,361.4,585.5,362.2
	L585.5,362.2z"/>
<path fill="#EDDAD3" d="M590.6,361.4c-0.7,0.8-1.5,1.5-2.3,2l1,1.5l1.7-3L590.6,361.4z"/>
<path fill="#EDDAD3" d="M585.9,361.7c0.7,0.8,1.5,1.4,2.4,1.8l-1.1,1.6l-1.9-2.7L585.9,361.7z"/>
<path fill="#5073AB" d="M588.3,363.4l0.8,1.3c-0.5,0.3-1.2,0.3-1.7,0L588.3,363.4z"/>
<path fill="#323657" d="M599.2,365L599.2,365c-0.1,0.4-0.5,1.7-0.9,3.4c-0.2,0.2-0.4,0.3-0.5,0.4c-0.2,0.2-0.4,0.3-0.6,0.5
	c-2.1,1.5-4.5,2.4-7,2.7c0.2-5.3,0.9-10,0.9-10c0.5,0.1,1,0.3,1.4,0.4c2.3,0.6,4.4,1.4,6.5,2.5l0,0C599.1,364.9,599.2,365,599.2,365
	L599.2,365z"/>
<path fill="#323657" d="M585.2,371.8c-2.3-0.5-4.4-1.4-6.3-2.9c-0.5-0.4-1.1-0.9-1.5-1.4c-0.1-0.1-0.2-0.2-0.3-0.3
	c-0.3-1.1-0.4-1.9-0.5-1.9c0,0,1.9-1.2,8.6-3C585.2,362.5,585.2,366.8,585.2,371.8L585.2,371.8z"/>
<path fill="#5073AB" d="M588.8,364.9c-0.1,1.4-0.1,4.1,0,7.2c-0.2,0-0.3,0-0.5,0c-0.5,0-1,0-1.5-0.1c0.2-2.4,0.5-4.8,1-7.1
	c0.1-0.3,0.1-0.5,0.1-0.5l0.9,0.1C588.8,364.6,588.8,364.8,588.8,364.9L588.8,364.9z"/>
<path fill="#323657" d="M599.9,366.6c-0.5,0.6-1.1,1.2-1.7,1.7c-0.2,0.2-0.4,0.3-0.5,0.4c0,0,0.9-2.6,1.5-3.8
	C599.6,365.2,599.8,366.2,599.9,366.6L599.9,366.6z"/>
<path fill="#323657" d="M577.4,367.5c-0.1-0.1-0.2-0.2-0.3-0.3c-0.3-0.4-0.7-0.7-1-1.1c0.1-0.3,0.3-0.6,0.5-0.8L577.4,367.5z"/>
<path fill="#1D3B54" d="M474.6,551.2c-1.2-1.9-2.8-3.4-4.7-4.5c-2.7-1.3-8.3,3.2-8.8,5.6l-6.5,9.5l1.2,0.8l3.5-5.1
	c-2.4,5.7-5.7,12.5-3.4,15.9c3.2,4.6,10.4,9.2,12.3,8.4s1.5-14.1,1.5-14.1C467.6,556,474.6,551.2,474.6,551.2L474.6,551.2z"/>
<path fill="#DE9673" d="M474.6,551.2c-1.4,2.6-2.6,5.3-3.6,8.1c-1.2,3.5-1.4,13.3-2.2,14c-0.8,0.7-6.8-2.4-7.6-6
	c-0.8-3.7,1.6-11,4-14.8c1.3-2.2,2.8-4.1,4.7-5.8C469.8,546.7,474,547.5,474.6,551.2z"/>
<path fill="#DE9673" d="M497.9,465.5c0,0-3.7,19.6-3.7,24.3c-0.1,6.3-1.6,12.4-4.3,18.1c-3,5.7-16.1,44.6-17.2,49.1
	s-2.1,8.8-2.1,8.8s-6.5-3-6.5-7.3s5.7-39.6,6.7-46.5c1-7,9.3-42.7,9.3-42.7L497.9,465.5z"/>
<path fill="#EEA886" d="M477,464.2c0,0,1.3,16.4,1.1,20.6s-2.1,14-2.1,16.5s0,55.6,2.1,62.1s-6,2-6,2S458,530.5,458,515.9
	s1.7-21.8,0.7-31.1s-5.4-21.4-5.4-21.4L477,464.2z"/>
<path fill="#3876C8" d="M455.7,385.4c-4.8,6.4-8.1,13.8-9.6,21.7c-2,12.4,2.4,35.7,3.9,42.5c1.4,5.9,4,24.9,4.1,26.9
	c0,0,25.5,2.9,44.8-3.2c0,0,1.8-26.5,2.9-37.7c1.1-11.2-4.4-49.2-4.4-49.2L455.7,385.4z"/>
<path fill="#1D3B54" d="M484.8,579.6c-9.1-8-6.7-16.1-6.7-16.1s-3.6-1.3-6.6-0.6s-4.5,7.8-3.4,10.1l0.9,11.6l1.5-0.1l-0.5-6.2
	c1.8,6,3.4,13.5,7.5,14.7c5.4,1.6,14.1,0.6,15.1-1.2S484.8,579.6,484.8,579.6L484.8,579.6z"/>
<path fill="#754836" d="M490.1,298.7c0,0-2.3,13.4-0.3,17.9s-10.4-5.3-10.4-5.3S484.6,296.6,490.1,298.7z"/>
<path fill="#754836" d="M485.6,261.4c0,0-19.8-4.5-22.2,16.6c-2.5,21.1,6.4,23.8,0.4,38.1s14.7-4.7,14.7-4.7L485.6,261.4z"/>
<path fill="#EEA886" d="M483.9,261c5.1-0.1,16.2,2.8,17.6,16.2c-0.3,2.2-0.8,4.3-1.5,6.4c-1,2.8,1.4,11.3,0.7,11.7
	c-1.1,0.4-2.3,0.7-3.4,0.8c0,0-3.2,9.1-6.4,8.9s-15.3-3-20.7-14.6S463.4,261.5,483.9,261L483.9,261z"/>
<path fill="#1D3B54" d="M428.6,428.2c0,0,0.5-8.1,2.6-9.4s0.9,1.3,0.9,1.3s-1.2,5.9-1.5,8.3C430,428.4,429.3,428.3,428.6,428.2
	L428.6,428.2z"/>
<path fill="#EEA886" d="M438.6,409.9c0.4,2.4,1,4.8,1.7,7.2c1.1,3.5,2.1,4.6,1.7,6.6c-0.3,1.5-2.1,2.7-2.5,2.2s-0.6-6.4-3.1-6.4
	c-2.4,0,0.7,7.3-0.7,6.8s-7.1-3.6-6.7-6.6c0.4-3,2.6-5.1,2.5-9.6c-0.1-4,1.1-5.7,1.1-5.7L438.6,409.9z"/>
<path fill="#1D3B54" d="M436.6,419.3c0,0,3.3,0.8,3.1,11.9l-3.7-0.6c0,0,0.1-6.1-1-9.4C435,421.1,435.1,418.9,436.6,419.3z"/>
<path fill="#EDDAD3" d="M450.1,433.6l-28.7-8.1l0.1,35.4l28.6,17.1L450.1,433.6z"/>
<path fill="#EDDAD3" d="M450.1,478l-3.6,0.7l-27.8-17.3l0.3-35.7l2.4-0.2L450.1,478z"/>
<path fill="#3876C8" d="M486.6,310.7c0,0,7.7,3.1,9,4.1s4.1,12,4.8,13c0.7,1,7.3,9.2,6.4,15.8c-0.7,5.2-3.7,8-5.6,10.1
	s-3.7,13.1-4.3,14.7s1.3,23.2,1.3,23.2s-22.5,8.7-42.6-6.2c0,0,4-14.4,4-17s-2.6-20.9-9.6-31.7s1.2-22.3,6.6-23.7
	c5.3-1.4,15.6-5.2,15.6-5.2L486.6,310.7z"/>
<path fill="#3876C8" d="M462.1,311.4c0,0-11.2-0.7-16.9,5.9c-5.6,6.6-5.3,14.4-6.8,17.7c-1.4,3.4-4.7,17.9-5.4,20.3
	c-0.7,2.4-1.4,15.6-2.4,26.3s-0.8,30.6-0.8,30.6l10.8-2c0,0,0.4-19,0.7-30s9.2-30.5,12.6-39C457.2,332.7,470.7,316.7,462.1,311.4z"
	/>
<path fill="#3876C8" d="M494.5,314.2c3.2,0.4,5.9,2.4,7.3,5.2c2.4,4.9,3.3,9,3.9,10.2s9.1,17.4,9.7,21c0.5,3.6-0.3,10.2-4.8,11.9
	s-20.7,1.9-20.7,1.9s4.1-8.3,0.3-12.6c0,0,11.8-2.1,14.5-2.4C507.6,349.2,490.8,317.9,494.5,314.2L494.5,314.2z"/>
<path fill="#1D3B54" d="M467.6,328.1l21.9,51.2l27.3-12.9l-20.2-49.1L467.6,328.1z"/>
<path fill="#EEA886" d="M480.2,353.2c0,0-3,0.8-3.9,0.9c-0.9,0.1,0.2,1.9,1.4,1.9S480.2,353.2,480.2,353.2z"/>
<path fill="#EEA886" d="M482.1,367.8c0.7,0,1.3-0.2,2-0.4c0,0,1-0.7,1.8-1.1c0.2-0.1,0.4-0.2,0.6-0.3c1.2-0.4,2.3-0.9,3.3-1.6
	c1.3-1,5.5-5,5.5-5l-2.8-4.2l-2.1-3.3c0,0-9,0.2-10.3,1c-0.1,0.1-0.2,0.2-0.4,0.2c-0.7,0.7-1.4,1.4-2,2.3c-0.2,0.2-1.9,2-1.8,2.8
	c0.1,0.8,0.6,1.6,1.3,2c0.2,1.1,0.7,2.1,1.4,2.9c0.2,1.1,0.9,2.1,1.9,2.6C480.5,365.7,481,367.6,482.1,367.8L482.1,367.8z"/>
<path fill="#3876C8" d="M490.1,351.9c0,0,13.3-2.4,17-2.8c0.1-2.9,0-5.8-0.4-8.6c-0.7-4-3.9-9.3-3.9-9.3l6.8,6.2
	c0,0,5.6,10.7,5.7,13.3c0.1,2.5,0.8,6.4-2.5,10.3c-3.3,3.9-19,2.1-19,2.1S495.2,358.3,490.1,351.9L490.1,351.9z"/>
<path fill="#EEA886" d="M486,303c0,0-0.4,1.3-0.9,3.2c-0.3,1-0.5,2.1-0.8,3.3c-0.7,3.3-1.1,7.2-0.3,9.8c0,0-7.2,2.3-12.5-7.9
	c0,0,2.7-10.8-0.2-17.4S486,303,486,303z"/>
<path fill="#754836" d="M501.5,277.3c0,0-8.4,5.4-16.6,6.3c-8.2,0.9-12.7,13.3-12.7,13.3s-12.9-20.1-2.5-32.4
	C480,252.1,503.7,261.7,501.5,277.3z"/>
<path fill="#EEA886" d="M481.5,283.1c0-1.6-1.7-4-4.3-1.9s0.6,9.7,2.8,9S481.5,284.7,481.5,283.1z"/>
<path fill="#EEA886" d="M487.1,310.9c0,0,3.4,10-4.5,9.9c-7.9-0.1-11.3-6.3-13.6-11.8c1.7-0.9,3.5-1.5,5.3-2
	C476,306.7,487.1,310.9,487.1,310.9z"/>
<path fill="#1D3B54" d="M439.7,430.7l-3.7,0.5v-1.7L439.7,430.7z"/>
<path fill="#1D3B54" d="M430.7,428.1l-2,0.2c0,0,0-0.6,0-0.8C428.7,427.3,430.6,428,430.7,428.1z"/>
<path fill="#EEA886" d="M478.1,563.4c0.6,2.9,1.4,5.8,2.3,8.7c1.3,3.6,7.3,11.4,7.2,12.4c-0.2,1-6.9,2.5-9.8,0.1s-5.7-9.7-6.3-14.2
	c-0.4-2.5-0.5-4.9-0.3-7.4C471.2,563,475.2,560.9,478.1,563.4z"/>
<path fill="#A77860" d="M485.7,304c-0.3,1-0.6,2.1-0.9,3.3c-3.8-2.5-7.1-5.8-9.6-9.6C478.9,301.3,485.7,304,485.7,304z"/>
<path fill="#DFE1E8" d="M180.8,112.2h85.4c3.8,0,6.8,3,6.8,6.8v39.8c0,3.8-3,6.8-6.8,6.8h-85.4c-3.8,0-6.8-3-6.8-6.8V119
	C174,115.3,177,112.2,180.8,112.2z"/>
<path fill="#323657" d="M123.1,380.5C123.1,380.5,123.1,380.5,123.1,380.5C123.2,380.6,123.2,380.6,123.1,380.5z"/>
<path fill="#FFE5E5" d="M150.6,372h-76c-1.2,0-2.2-1-2.2-2.2v-5.2c0-1.2,1-2.2,2.2-2.2h76c1.2,0,2.2,1,2.2,2.2v5.2
	C152.8,371,151.8,372,150.6,372z"/>
<path fill="#FFE5E5" d="M150.6,389.4h-76c-1.2,0-2.2-1-2.2-2.2V382c0-1.2,1-2.2,2.2-2.2h76c1.2,0,2.2,1,2.2,2.2v5.2
	C152.8,388.4,151.8,389.4,150.6,389.4z"/>
<path fill="#FFE5E5" d="M150.6,406.7h-76c-1.2,0-2.2-1-2.2-2.2v-5.2c0-1.2,1-2.2,2.2-2.2h76c1.2,0,2.2,1,2.2,2.2c0,0,0,0,0,0v5.2
	C152.8,405.7,151.8,406.7,150.6,406.7C150.6,406.7,150.6,406.7,150.6,406.7z"/>
<path fill="#FFE5E5" d="M178.8,257.6h22.9c2.3,0,4.1,1.9,4.1,4.1v59.4c0,2.3-1.9,4.1-4.1,4.1l0,0h-22.9c-2.3,0-4.1-1.9-4.1-4.1
	c0,0,0,0,0,0v-59.4C174.6,259.5,176.5,257.6,178.8,257.6C178.8,257.6,178.8,257.6,178.8,257.6z"/>
<path fill="#EEA886" d="M11.2,446.5c0.7,1.1,1.1,2.3,1.3,3.6c0.4,1.5,0.9,2.9,1.6,4.2c0.9,2.3,1.5,4.6,2,7c0,0.5-1.1,3.7-0.9,4.7
	s0.7,3-0.2,3.2s-1.9-1.5-1.9-1.5c0,0.5-0.2,1-0.7,1.3c-0.7,0.4-1.6,0.5-2.3,0.1c0,0-0.6,1-1.2,1.2c-0.8,0.2-1.6,0.1-2.3-0.3
	c-0.5,0.4-1.1,0.6-1.7,0.6c-0.8,0-1.5-0.5-1.9-1.2c0,0-1.7,0.3-2.2-0.5c-0.3-0.8-0.5-1.6-0.6-2.4c-0.2-4.1,0.6-8.2,2.2-12
	c2.2-4.7-0.6-9.3-0.6-9.3L11.2,446.5z"/>
<path fill="#DB9C7C" d="M13.4,467c0,0,0.2-5.9-1.4-7.1c-1.6-1.3-1.7,0.9-1.7,0.9s0.2-2.1-1.5-2.4S7,460.6,7,460.6
	c-0.2-0.9-1-1.5-1.9-1.3c-0.1,0-0.1,0-0.2,0c-1.8,0.3-1.4,2.4-1.4,2.4s-1.7-2-2.8-0.1c-1.9,3.3-0.1,7.2-0.1,7.2s0.5,0.9,2.2,0.5
	c0,0,1.1,2.3,3.7,0.6c0,0,2.6,1.4,3.5-0.9C10.2,469,13,470.4,13.4,467L13.4,467z"/>
<path fill="#323657" d="M31.2,361.8c0,0-10.1,33.5-13.5,45.9c-1.1,3.9-3.6,40.9-4.1,42.4c-0.5,1.5-13.2,3.5-13.2,3.5
	s1.5-46.4,1.7-48.9c0.1-2.5,14.1-54.3,18.1-56.2c3-1.4,4.6-0.2,8.5,2.6C34.1,355.2,31.2,361.8,31.2,361.8L31.2,361.8z"/>
<path fill="#4DA8F2" d="M129.3,314.8l23-15.1l1.1,1.7l-23,15.1L129.3,314.8z"/>
<path fill="#EFAA88" d="M156,308.4c-0.1,0.6-0.3,1.3-0.6,1.8c0,0-0.8,0.9-1.3,1.6c-0.1,0.2-0.3,0.4-0.4,0.5c-0.5,1.1-1.1,2.1-1.9,3
	c-1.1,1.1-5.4,4.7-5.4,4.7l-3.7-3.1l-3.8-1.7c0,0,2.1-9.3,3-10.4c0.1-0.1,0.2-0.2,0.3-0.3c0.7-0.6,1.5-1.2,2.4-1.6
	c0.2-0.2,2.1-1.6,2.8-1.4c0.8,0.2,1.5,0.7,1.8,1.5c1,0.3,1.9,0.9,2.6,1.7c1,0.3,1.9,1.1,2.3,2.1C154.2,306.6,155.9,307.3,156,308.4
	L156,308.4z"/>
<path fill="#424773" d="M23,590.9c0,0-0.9,6.4-1,7.3s-10.2-0.6-10.2-0.6L11,590C11,590,21.8,590,23,590.9L23,590.9z"/>
<path fill="#292C47" d="M22.1,597.4c1.8,2.2,3.9,4,6.3,5.5c3.1,1.7,8,2.3,9.8,4.1c1.3,1.3,4.8,6.6-8,6.5s-19,0.8-20.4-1.3
	s2-15.2,2-15.2S14.7,598.1,22.1,597.4L22.1,597.4z"/>
<path fill="#424773" d="M95.3,590.9c0,0-0.9,6.4-1,7.3s-10.2-0.6-10.2-0.6l-0.8-7.6C83.3,590,94.1,590,95.3,590.9L95.3,590.9z"/>
<path fill="#292C47" d="M94.4,597.4c1.8,2.2,3.9,4,6.3,5.5c3.1,1.7,14.5,3,16.3,4.8c1.3,1.3,3.5,6.3-14.6,5.8
	c-12.8-0.3-19,0.8-20.4-1.3c-1.4-2.1,2-15.2,2-15.2S86.9,598.1,94.4,597.4L94.4,597.4z"/>
<path fill="#292C47" d="M31.4,427.2c0,0-9.5,15.1-8.8,28.7s-3.4,28.5-4.9,42.7c-1.6,15.9-8.1,53.4-8.3,61.9s1,35.6,1,35.6l13,0.3
	c0,0,10.9-65.6,13.8-72.3c2.8-6.7,16.9-54.5,17.3-59.8S31.4,427.2,31.4,427.2z"/>
<path fill="#292C47" d="M81.3,429.3c0,0,7.1,37.3,8.1,45.7s1.6,40.3,2,45.5c0.5,5.2,4.4,68,5.7,75.9H80.5c0,0-12.8-45.8-12.8-67.4
	s-9.9-47.1-16.2-61.4c-6.4-14.3-20.9-14.6-24.9-41.1C26.6,426.5,76,420.9,81.3,429.3L81.3,429.3z"/>
<path fill="#EEA886" d="M47.2,300.6c0,0,12.7-4.8,18.6,4.9c5.9,9.7,5.3,29.1-1.1,31.5s-16.1,1.1-19.3-4.9
	c-3.3-6.1-6.2-14.8-6.1-20.7S43.9,302.2,47.2,300.6L47.2,300.6z"/>
<path fill="#EEA886" d="M63.3,337.4c0,0-0.5,3.4,0.3,5.1s-16.5,1.7-16.5,1.7c-0.9-5.8-2.3-11.4-4.1-17
	C40.4,319.5,63.3,337.4,63.3,337.4L63.3,337.4z"/>
<path fill="#D88A51" d="M43.1,327.3c0,0,1.2,2,6.1,1.2c4.9-0.8,10.9-7.3,12.9-8c2-0.7,2.1-1.9,2.1-1.9l1.3,1.9l2.2,0.1
	c0,0-2-5.8,1-8.2c3-2.4-3.1-18.8-18.8-13.4c0,0-12.1,3.3-11.6,10.2S40.4,323.9,43.1,327.3L43.1,327.3z"/>
<path fill="#E2D2CA" d="M64.7,342.3c0,0-0.1-3.2-1.5-3.5s-16.2-1.7-18-1v3.8C45.2,341.5,48.6,343.7,64.7,342.3z"/>
<path fill="#EEA886" d="M63.8,316.1c-0.3-1.1-3.2-4.4-4.3-0.9c-1.1,3.5,1.7,8.2,3.3,7.8C64.3,322.6,64.5,319,63.8,316.1z"/>
<path fill="#323657" d="M89,347.2c-10.1-1.3-24.3-4.9-24.3-4.9l-19.5-0.8c0,0-17.9,3.9-24.9,7.1c-0.7,0.3-0.7,16-2.5,20.1l5.8,12.3
	c0,0,3.4,24.4,4.1,35.3c0.3,5-7,46.8-7,46.8c6.9,1.8,14,3.1,21.1,3.8c13.3,1.5,46.6-0.5,46.8-2.1s-6.4-58.5-6.7-61.5
	c-0.5-4.5,1.6-28.6,1.6-28.6c3.1-2.4,30.1-14.9,37.4-21.4c2-1.7,10.3-9.8,12.7-12.6c8.4-9.9,15.2-18.4,16.1-20.2
	c0.9-1-9.1-6.5-10-6.8c-0.8-0.3-12.1,14.4-16.5,19.1c-1.9,2.1-10,8-10,8S95.3,347.6,89,347.2L89,347.2z"/>
<path fill="#D88A51" d="M43.6,301.7c0,0-16.2,1.3-0.5,25.6L43.6,301.7z"/>
<path fill="#DFE1E8" d="M153.5,301.4l1.3-2l-2.5,0.3L153.5,301.4z"/>
</svg>
